<svg width="512" height="450" viewBox="0 0 512 450" fill="none" xmlns="http://www.w3.org/2000/svg">
<path fill-rule="evenodd" clip-rule="evenodd" d="M293.94 75.9547C289.826 76.4687 286.376 76.9737 286.275 77.0757C286.173 77.1777 284 82.7432 284.874 89.4067C277.701 161.073 335.37 224.551 407.001 221.243C424.598 220.43 426.434 221.206 427.384 216.743C427.81 214.742 429.02 201.743 429 190.743C428.965 171.765 427.206 169.802 424.572 161.262C418.372 141.153 408.127 123.936 393.902 109.72C367.695 83.5277 331.409 71.2717 293.94 75.9547Z" fill="#F6CB43"/>
<path fill-rule="evenodd" clip-rule="evenodd" d="M276.921 79.7057C268.385 82.1007 263.453 83.9587 256.85 87.2657C232.651 99.3837 206.2 117.52 195.501 143.743C190.009 157.202 190.932 165.704 198.497 169.243C213.076 176.066 230.594 187.789 240 201.743C248.238 213.966 251.956 230.866 253.501 244.743L258.5 249.243L256.85 253.951C252.824 261.329 270.602 267.673 276.921 258.243L282.501 263.243H294.001C305.666 259.854 312.013 262.634 324.501 263.243C347.878 264.381 354.152 272.995 371.001 288.243L385.73 294.743L411.501 281.743C422.708 271.016 429.65 245.323 434.001 229.243C444.532 225.058 425.893 218.4 425.654 218.162C425.415 217.923 422.115 218.177 418.321 218.725C375.223 224.955 328.925 204.132 304.605 167.582C287.492 141.862 281.911 109.768 286 77.2438C286 77.2438 286.418 77.0407 276.921 79.7057Z" fill="#FAB03C"/>
<path fill-rule="evenodd" clip-rule="evenodd" d="M132.421 56.2668C94.605 64.7508 67.609 94.2909 62.466 132.814L61.858 137.367L55.211 138.505C38.132 141.431 22.835 155.469 18.473 172.222C15.43 183.906 17.034 197.573 22.692 208.187C25.845 214.102 35.882 224.463 39.286 225.317C40.577 225.642 44.736 225.004 48.527 223.9C52.319 222.796 57.935 221.615 61.008 221.276L66.596 220.659L103 215.743C106.449 207.423 110.311 207.682 118.171 199.743C142.713 174.957 150.921 184.243 186.239 159.7C189.639 160.675 192.297 166.526 193.049 166.743C193.963 167.007 195.9 160.114 197.413 155.762C198.655 152.187 200.831 146.666 202.249 143.494L204.827 137.726L201.319 130.994C189.534 108.376 169.289 92.3928 143.854 85.6278C137.024 83.8108 132.854 83.3949 121.921 83.4369C106.5 83.4979 97.428 85.4218 85.159 91.2338C76.505 95.3338 76.649 94.5388 86.488 83.9118C94.675 75.0688 103.035 68.9848 114.157 63.7729C126.25 58.1059 132.566 56.6619 148.921 55.8259L166 57.2432V56.2432L150.921 55.0028C143.764 54.9558 135.856 55.4958 132.421 56.2668ZM173.5 59.2432C198.058 65.6142 211.593 79.8832 224 101.243C225.532 103.881 230.392 104.625 230.67 104.346C231.62 103.396 222.055 89.1969 216.051 82.6449C203.921 69.4069 181.24 58.0562 166 56.2432V57.2432L173.5 59.2432ZM317.421 252.243C318.109 252.521 319.813 252.521 320.5 252.243C321.329 254.562 319.875 253.243 318.5 253.243C317.125 253.243 316.734 251.966 317.421 252.243ZM331.734 251.445C332.455 251.734 333.318 251.698 333.65 251.366C333.982 251.034 333.054 254.7 332 254.743C330.835 254.791 330.936 251.126 331.734 251.445ZM317.421 264.595C311.651 265.652 308.974 273.136 312.714 277.755C314.19 279.578 316.068 280.127 323.359 280.866C328.228 281.359 334.059 282.246 336.316 282.836C344.332 284.93 356.368 291.577 363.219 297.693C368.605 302.501 370.697 303.762 373.294 303.762C376.635 303.762 379.962 301.129 381.262 297.456C383.836 290.182 362.643 273.586 343.41 267.816C336.532 265.752 321.366 263.873 317.421 264.595ZM246.705 281.746C238.496 290.543 230.777 302.045 227.399 310.512C225.911 314.242 225.32 314.764 222.562 314.779C217.297 314.808 206.066 317.549 200.194 320.238L194.636 322.782L200.172 328.586C206.286 334.996 211.984 343.381 214.5 349.668C215.929 353.238 216.54 353.764 219.28 353.774C221.007 353.78 224.478 360.508 227.228 361.243C250.928 367.584 254.339 383.997 250.5 407.243C247.372 426.184 245.836 442.423 227.228 447.27C217.895 449.701 217.56 449.5 221.411 443.776C237.789 419.44 228.851 385.942 202.614 373.323C198.42 371.305 192.59 369.415 189.082 368.936C185.692 368.472 182.765 367.906 182.577 367.677C182.39 367.449 180.478 363.895 178.329 359.779C173.019 349.611 160.152 336.537 149.962 330.954C139.66 325.311 128.777 322.495 116.768 322.366C108.4 322.276 107.269 322.065 108.268 320.781C110.392 318.054 101.25 325.656 97.756 329.522C88.827 339.406 81.506 353.817 79.347 365.762C78.601 369.887 77.975 373.312 77.956 373.373C77.937 373.434 75.658 373.751 72.893 374.079C62.002 375.369 50.836 384.066 45.215 395.638C42.806 400.597 42.479 402.445 42.452 411.262C42.424 420.203 42.725 421.921 45.295 427.484C48.817 435.108 56.62 442.795 64.668 446.566L70.421 449.262H248.921H427.421L434.921 446.499C464.663 435.541 478.272 401.88 464.529 373.262C460.897 365.698 455.707 359.12 450.621 355.633C448.688 354.307 449.833 355.865 453.514 359.567C474.15 380.324 474.038 412.796 453.26 433.446C443.988 442.661 429.85 448.762 417.765 448.762C414.275 448.762 413.814 448.517 414.472 447.012C418.447 437.921 419.888 423.533 417.824 413.561C413.572 393.021 395.564 375.672 375.161 372.459L368.206 371.364L366.979 363.346C365.469 353.483 361.676 341.229 357.667 333.262C339.814 297.786 301.858 275.752 262.754 278.165C257.437 278.493 252.262 279.054 251.254 279.412C250.077 279.83 250.655 278.756 252.867 276.412C254.763 274.405 251.159 279.499 250.821 279.499C250.484 279.499 249 280.243 246.705 281.746ZM395.421 286.762C396.416 287.862 397.456 288.762 397.731 288.762C398.006 288.762 397.416 287.862 396.421 286.762C395.426 285.662 394.386 284.762 394.111 284.762C393.836 284.762 394.426 285.662 395.421 286.762ZM397.921 290.14C397.921 290.347 398.709 291.135 399.671 291.89C401.257 293.133 401.292 293.098 400.049 291.512C398.742 289.846 397.921 289.317 397.921 290.14ZM145.671 307.494C148.009 307.705 151.833 307.705 154.171 307.494C156.509 307.284 154.596 307.111 149.921 307.111C145.246 307.111 143.333 307.284 145.671 307.494ZM136.734 308.445C137.455 308.734 138.318 308.698 138.65 308.366C138.982 308.034 138.392 307.798 137.338 307.841C136.173 307.889 135.936 308.126 136.734 308.445ZM161.734 308.445C162.455 308.734 163.318 308.698 163.65 308.366C163.982 308.034 163.392 307.798 162.338 307.841C161.173 307.889 160.936 308.126 161.734 308.445ZM382.376 312.217C379.295 315.297 379.309 317.417 382.469 326.728C385.634 336.055 387.12 337.762 392.076 337.762C397.05 337.762 399.921 335.006 399.921 330.23C399.921 325.478 396.252 314.795 393.665 312.012C390.775 308.904 385.594 308.998 382.376 312.217ZM117.671 314.334C113.794 316.437 114.233 317.163 118.171 315.161C121.941 313.243 122.608 312.747 121.338 312.802C120.833 312.824 119.184 313.513 117.671 314.334ZM180.004 314.127C180.234 314.327 181.546 315.027 182.921 315.682C185.278 316.804 185.31 316.784 183.48 315.317C181.887 314.041 178.632 312.926 180.004 314.127ZM190.921 320.14C190.921 320.347 191.708 321.135 192.671 321.89C194.257 323.133 194.292 323.098 193.049 321.512C191.742 319.846 190.921 319.317 190.921 320.14ZM417.079 335.762C417.079 337.137 417.306 337.7 417.583 337.012C417.861 336.325 417.861 335.2 417.583 334.512C417.306 333.825 417.079 334.387 417.079 335.762ZM421.671 344.424C422.359 344.702 423.484 344.702 424.171 344.424C424.859 344.147 424.296 343.92 422.921 343.92C421.546 343.92 420.984 344.147 421.671 344.424ZM437.004 348.135C438.033 349.056 443.921 351.761 443.921 351.313C443.921 350.737 438.377 347.762 437.304 347.762C436.91 347.762 436.775 347.93 437.004 348.135Z" fill="#F0F5F7"/>
<path fill-rule="evenodd" clip-rule="evenodd" d="M132.649 57.2967C125.157 58.7867 112.836 63.8097 104.11 68.9307C98.3734 72.2987 81.2464 88.4007 79.0764 92.4677C77.9864 94.5107 78.4374 94.4187 85.1604 91.2337C97.4294 85.4217 106.501 83.4977 121.922 83.4367C132.855 83.3947 137.025 83.8107 143.855 85.6277C169.291 92.3927 190.361 109.094 201.427 131.262C205.058 138.536 205.085 138.573 205.642 137.013C207.018 133.16 216.84 119.773 223.227 113.044L230.615 105.262L227.518 100.204C213.576 77.4297 195.128 63.7017 170.422 57.7147C160.917 55.4107 143.119 55.2137 132.649 57.2967ZM147.796 156.734C126.124 159.477 104.784 169.89 89.7814 185.043C81.9214 192.982 72.3884 206.687 68.9394 215.007L66.5974 220.659L61.0094 221.283C53.7684 222.092 41.6314 225.501 35.9224 228.329C19.4414 236.494 5.6264 254.1 1.3364 272.406C-0.952599 282.171 -0.202599 300.893 2.8334 309.762C9.7184 329.881 25.3754 345.445 45.8264 352.5C52.2464 354.715 55.6204 355.187 67.6124 355.551L81.8034 355.981L84.7714 349.434C89.6784 338.612 97.0554 328.941 105.314 322.503L107 322.243C107 322.243 108.401 322.276 116.769 322.366C128.778 322.495 139.661 325.311 149.963 330.954C160.153 336.537 173.02 349.611 178.33 359.779C180.479 363.895 182.391 367.449 182.578 367.677C182.766 367.906 185.693 368.472 189.083 368.936C192.591 369.415 198.421 371.305 202.615 373.323C228.852 385.942 237.79 419.44 221.412 443.776C217.561 449.5 217.896 449.701 227.229 447.27C236.074 444.966 242.798 441.071 249.478 434.383C268.316 415.521 268.161 385.694 249.131 367.543C240.73 359.529 228.326 353.808 219.281 353.774C216.541 353.764 215.93 353.238 214.501 349.668C211.985 343.381 206.287 334.996 200.173 328.586L194.637 322.782L200.195 320.238C206.067 317.549 217.298 314.808 222.563 314.779C225.321 314.764 225.912 314.242 227.4 310.512C230.923 301.682 238.61 290.389 246.907 281.856L248.5 280.743L249.5 280.243C249.5 280.243 249.914 279.888 251.255 279.412C252.263 279.054 257.438 278.493 262.755 278.165C285.421 276.767 309.25 283.955 327.894 297.816C349.121 313.598 362.901 336.699 366.98 363.346L368.207 371.364L375.162 372.459C395.565 375.672 413.573 393.021 417.825 413.561C419.889 423.533 418.448 437.921 414.473 447.012C412.758 450.934 428.293 448.528 439.731 443.099C471.345 428.094 478.711 385.231 454.015 359.977C450.939 356.831 448.85 354.596 449.372 355.01C451.022 356.316 466.262 355.825 472.219 354.273C481.756 351.789 489.876 347.052 496.922 339.863C507.386 329.187 511.898 318.009 511.898 302.762C511.898 287.114 507.365 276.051 496.499 265.185C487.247 255.934 474.462 249.813 464.311 249.774C461.253 249.762 461.191 249.664 460.674 244.012C458.876 224.328 447.682 200.704 433.624 186.922L428.176 181.581L428.682 188.645C429.363 198.165 427.25 216.365 424.257 226.762C419.449 243.465 409.397 261.222 396.804 275.262L391.422 281.262L388.777 278.762C383.818 274.075 382 272.743 380.5 271.743L378.5 270.243C378.5 270.262 377.5 269.243 378.5 270.243C378.5 270.243 373.134 265.722 372.172 265.389C372.172 265.389 367.61 263.267 364.172 261.414C360.735 259.562 358.5 258.743 357.922 258.519C357.922 258.519 357 258.243 355.5 257.743C354 257.243 353 256.5 353 256.5C352.078 255.882 351 255.243 351 255.243C350.271 254.638 348 253.743 348 253.743C346.5 253.243 346.5 253.243 346.5 253.243C344 252.243 327.662 250.435 318.922 250.414C310.445 250.395 302.74 251.318 294.672 253.32C293.434 253.628 291.747 254.043 290.922 254.244C290.097 254.445 289.172 254.81 289.172 254.81L288.172 255.223C286 256 284 256.5 283 257C282.503 257.275 282.246 257.047 282.246 257.047C282.246 257.047 273.615 252.115 265.519 250.706L259.162 249.598L258.492 243.678C256.022 221.842 243.695 197.839 227.175 182.695C215.016 171.548 195.688 161.392 180.884 158.371C171.232 156.401 156.274 155.661 147.796 156.734ZM343.411 267.816C362.644 273.586 383.837 290.182 381.263 297.456C379.963 301.129 376.636 303.762 373.295 303.762C370.698 303.762 368.606 302.501 363.22 297.693C356.369 291.577 344.333 284.93 336.317 282.836C334.06 282.246 328.229 281.359 323.36 280.866C316.069 280.127 314.191 279.578 312.715 277.755C308.975 273.136 311.652 265.652 317.422 264.595C321.367 263.873 336.533 265.752 343.411 267.816ZM393.666 312.012C396.253 314.795 399.922 325.478 399.922 330.23C399.922 335.006 397.051 337.762 392.077 337.762C387.121 337.762 385.635 336.055 382.47 326.728C379.31 317.417 379.296 315.297 382.377 312.217C385.595 308.998 390.776 308.904 393.666 312.012Z" fill="#C4E1E8"/>
<circle cx="310.5" cy="8.5" r="8.5" fill="#F8E98E"/>
<circle cx="310.5" cy="35.417" r="8.5" fill="#F8E98E"/>
<rect x="302" y="8.50098" width="17" height="25.5" fill="#F8E98E"/>
<circle cx="470.963" cy="101.598" r="8.5" transform="rotate(60.2334 470.963 101.598)" fill="#F8E98E"/>
<circle cx="447.595" cy="114.962" r="8.5" transform="rotate(60.2334 447.595 114.962)" fill="#F8E98E"/>
<rect x="466.742" y="94.2207" width="17" height="25.5" transform="rotate(60.2334 466.742 94.2207)" fill="#F8E98E"/>
<circle cx="496.418" cy="194.5" r="8.5" transform="rotate(90 496.418 194.5)" fill="#F8E98E"/>
<circle cx="469.5" cy="194.5" r="8.5" transform="rotate(90 469.5 194.5)" fill="#F8E98E"/>
<rect x="496.418" y="186" width="17" height="25.5" transform="rotate(90 496.418 186)" fill="#F8E98E"/>
<circle cx="403.728" cy="32.6859" r="8.5" transform="rotate(31.4427 403.728 32.6859)" fill="#F8E98E"/>
<circle cx="389.689" cy="55.6507" r="8.5" transform="rotate(31.4427 389.689 55.6507)" fill="#F8E98E"/>
<rect x="396.477" y="28.252" width="17" height="25.5" transform="rotate(31.4427 396.477 28.252)" fill="#F8E98E"/>
<circle cx="216.609" cy="32.6092" r="8.5" transform="rotate(-29.9663 216.609 32.6092)" fill="#F8E98E"/>
<circle cx="230.055" cy="55.9276" r="8.5" transform="rotate(-29.9663 230.055 55.9276)" fill="#F8E98E"/>
<rect x="209.246" y="36.8555" width="17" height="25.5" transform="rotate(-29.9663 209.246 36.8555)" fill="#F8E98E"/>
</svg>
